<svg width="184" height="49" viewBox="0 0 184 49" fill="none" xmlns="http://www.w3.org/2000/svg">
<path d="M16.2141 34.3806C24.8929 34.3806 31.9284 27.3451 31.9284 18.6663C31.9284 17.6827 31.8381 16.7202 31.6652 15.7867C30.7316 15.6138 29.7692 15.5234 28.7856 15.5234C20.1068 15.5234 13.0713 22.559 13.0713 31.2377C13.0713 32.2213 13.1617 33.1838 13.3345 34.1173C14.2681 34.2902 15.2306 34.3806 16.2141 34.3806Z" fill="#175CD3"/>
<path fill-rule="evenodd" clip-rule="evenodd" d="M13.3347 34.1175C6.03118 32.7649 0.5 26.3616 0.5 18.6664C0.5 9.98767 7.53553 2.95215 16.2143 2.95215C23.9095 2.95215 30.3128 8.48332 31.6653 15.7868C30.7318 15.6139 29.7693 15.5236 28.7857 15.5236C20.107 15.5236 13.0714 22.5591 13.0714 31.2379C13.0714 32.2215 13.1618 33.1839 13.3347 34.1175Z" fill="#1570EF"/>
<path fill-rule="evenodd" clip-rule="evenodd" d="M16.2146 34.381C24.8933 34.381 31.9289 27.3455 31.9289 18.6667C31.9289 17.6831 31.8385 16.7206 31.6656 15.7871C38.9691 17.1397 44.5003 23.543 44.5003 31.2381C44.5003 39.9169 37.4648 46.9524 28.786 46.9524C21.0908 46.9524 14.6875 41.4213 13.335 34.1177C14.2685 34.2906 15.231 34.381 16.2146 34.381Z" fill="#2E90FA"/>
<path d="M74.7284 29.8563C74.1684 31.667 73.1884 33.0203 71.7884 33.9163C70.3884 34.7936 68.755 35.2323 66.8884 35.2323C65.059 35.2323 63.4724 34.8496 62.1284 34.0843C60.803 33.319 59.7764 32.227 59.0484 30.8083C58.339 29.3896 57.9844 27.691 57.9844 25.7123C57.9844 23.7336 58.3484 22.035 59.0764 20.6163C59.8044 19.1976 60.831 18.1056 62.1564 17.3403C63.4817 16.575 65.0404 16.1923 66.8324 16.1923C68.7177 16.1923 70.3324 16.5936 71.6764 17.3963C73.039 18.1803 73.9724 19.375 74.4764 20.9803L70.9764 22.4643C70.659 21.3443 70.1737 20.551 69.5204 20.0843C68.867 19.599 68.027 19.3563 67.0004 19.3563C65.4697 19.3563 64.247 19.907 63.3324 21.0083C62.4364 22.091 61.9884 23.659 61.9884 25.7123C61.9884 27.747 62.4177 29.315 63.2764 30.4163C64.135 31.5176 65.3764 32.0683 67.0004 32.0683C68.0084 32.0683 68.8764 31.7976 69.6044 31.2563C70.351 30.715 70.8737 29.8936 71.1724 28.7923L74.7284 29.8563Z" fill="#3555AE"/>
<path d="M79.5617 18.9363C77.975 18.9363 77.1817 18.255 77.1817 16.8923C77.1817 15.511 77.975 14.8203 79.5617 14.8203C81.1483 14.8203 81.9417 15.511 81.9417 16.8923C81.9417 18.255 81.1483 18.9363 79.5617 18.9363ZM81.4657 20.9523V34.9523H77.6297V20.9523H81.4657Z" fill="#3555AE"/>
<path d="M85.532 34.9523V20.9523H88.864L89.116 23.6963C89.4707 22.7443 90.0027 22.007 90.712 21.4843C91.44 20.943 92.3547 20.6723 93.456 20.6723C94.1093 20.6723 94.6133 20.775 94.968 20.9803L94.52 24.2003C94.3333 24.1443 94.1 24.0976 93.82 24.0603C93.5587 24.0043 93.2133 23.9763 92.784 23.9763C92.2053 23.9763 91.6547 24.1163 91.132 24.3963C90.628 24.6576 90.208 25.0683 89.872 25.6283C89.536 26.1696 89.368 26.8603 89.368 27.7003V34.9523H85.532Z" fill="#3555AE"/>
<path d="M103.427 20.6723C105.294 20.6723 106.74 21.0736 107.767 21.8763C108.812 22.679 109.503 23.6496 109.839 24.7883L106.255 26.0763C105.882 24.3776 104.958 23.5283 103.483 23.5283C102.419 23.5283 101.588 23.9016 100.991 24.6483C100.412 25.395 100.123 26.5056 100.123 27.9803C100.123 29.4736 100.422 30.5843 101.019 31.3123C101.635 32.0216 102.466 32.3763 103.511 32.3763C105.135 32.3763 106.106 31.5456 106.423 29.8843L109.895 31.0043C109.578 32.255 108.868 33.2723 107.767 34.0563C106.684 34.8403 105.275 35.2323 103.539 35.2323C102.083 35.2323 100.804 34.943 99.703 34.3643C98.6204 33.7856 97.7804 32.955 97.1831 31.8723C96.5857 30.7896 96.2871 29.483 96.2871 27.9523C96.2871 26.4216 96.5857 25.115 97.1831 24.0323C97.799 22.9496 98.639 22.119 99.703 21.5403C100.786 20.9616 102.027 20.6723 103.427 20.6723Z" fill="#3555AE"/>
<path d="M119.26 20.6723C120.66 20.6723 121.901 20.9616 122.984 21.5403C124.066 22.119 124.906 22.9496 125.504 24.0323C126.12 25.115 126.428 26.4216 126.428 27.9523C126.428 29.483 126.12 30.7896 125.504 31.8723C124.906 32.955 124.066 33.7856 122.984 34.3643C121.901 34.943 120.66 35.2323 119.26 35.2323C117.841 35.2323 116.59 34.943 115.508 34.3643C114.444 33.7856 113.604 32.955 112.988 31.8723C112.39 30.7896 112.092 29.483 112.092 27.9523C112.092 26.4216 112.39 25.115 112.988 24.0323C113.604 22.9496 114.444 22.119 115.508 21.5403C116.59 20.9616 117.841 20.6723 119.26 20.6723ZM119.26 23.5283C118.214 23.5283 117.393 23.9016 116.796 24.6483C116.217 25.3763 115.928 26.4776 115.928 27.9523C115.928 29.427 116.217 30.5376 116.796 31.2843C117.393 32.0123 118.214 32.3763 119.26 32.3763C120.286 32.3763 121.089 32.0123 121.668 31.2843C122.265 30.5376 122.564 29.427 122.564 27.9523C122.564 26.4776 122.265 25.3763 121.668 24.6483C121.089 23.9016 120.286 23.5283 119.26 23.5283Z" fill="#3555AE"/>
<path d="M136.021 20.6723C137.421 20.6723 138.663 20.9616 139.745 21.5403C140.828 22.119 141.668 22.9496 142.265 24.0323C142.881 25.115 143.189 26.4216 143.189 27.9523C143.189 29.483 142.881 30.7896 142.265 31.8723C141.668 32.955 140.828 33.7856 139.745 34.3643C138.663 34.943 137.421 35.2323 136.021 35.2323C134.603 35.2323 133.352 34.943 132.269 34.3643C131.205 33.7856 130.365 32.955 129.749 31.8723C129.152 30.7896 128.853 29.483 128.853 27.9523C128.853 26.4216 129.152 25.115 129.749 24.0323C130.365 22.9496 131.205 22.119 132.269 21.5403C133.352 20.9616 134.603 20.6723 136.021 20.6723ZM136.021 23.5283C134.976 23.5283 134.155 23.9016 133.557 24.6483C132.979 25.3763 132.689 26.4776 132.689 27.9523C132.689 29.427 132.979 30.5376 133.557 31.2843C134.155 32.0123 134.976 32.3763 136.021 32.3763C137.048 32.3763 137.851 32.0123 138.429 31.2843C139.027 30.5376 139.325 29.427 139.325 27.9523C139.325 26.4776 139.027 25.3763 138.429 24.6483C137.851 23.9016 137.048 23.5283 136.021 23.5283Z" fill="#3555AE"/>
<path d="M150.179 14.8203V30.6403C150.179 31.2936 150.291 31.751 150.515 32.0123C150.739 32.2736 151.112 32.4043 151.635 32.4043C151.952 32.4043 152.214 32.3856 152.419 32.3483C152.625 32.311 152.886 32.2363 153.203 32.1243L152.867 34.6443C152.55 34.831 152.148 34.971 151.663 35.0643C151.196 35.1763 150.73 35.2323 150.263 35.2323C148.9 35.2323 147.902 34.9056 147.267 34.2523C146.651 33.5803 146.343 32.5163 146.343 31.0603V14.8203H150.179Z" fill="#3555AE"/>
<path d="M161.837 35.2323C159.634 35.2323 157.87 34.5976 156.545 33.3283C155.219 32.0403 154.557 30.2483 154.557 27.9523C154.557 26.4216 154.855 25.115 155.453 24.0323C156.05 22.9496 156.881 22.119 157.945 21.5403C159.027 20.9616 160.259 20.6723 161.641 20.6723C163.059 20.6723 164.263 20.9616 165.253 21.5403C166.242 22.1003 166.998 22.875 167.521 23.8643C168.043 24.835 168.305 25.9456 168.305 27.1963C168.305 27.5696 168.295 27.9243 168.277 28.2603C168.258 28.5963 168.23 28.895 168.193 29.1563H158.309C158.458 30.239 158.831 31.051 159.429 31.5923C160.045 32.115 160.838 32.3763 161.809 32.3763C162.63 32.3763 163.293 32.2176 163.797 31.9003C164.301 31.583 164.693 31.1443 164.973 30.5843L168.025 31.7603C167.577 32.8616 166.793 33.7203 165.673 34.3363C164.553 34.9336 163.274 35.2323 161.837 35.2323ZM161.613 23.5003C159.802 23.5003 158.71 24.499 158.337 26.4963H164.637C164.525 25.5256 164.207 24.7883 163.685 24.2843C163.181 23.7616 162.49 23.5003 161.613 23.5003Z" fill="#3555AE"/>
<path d="M177.155 35.2323C175.737 35.2323 174.439 34.9803 173.263 34.4763C172.106 33.9723 171.163 33.263 170.435 32.3483L172.647 30.1083C173.095 30.7803 173.693 31.331 174.439 31.7603C175.186 32.1896 176.073 32.4043 177.099 32.4043C177.827 32.4043 178.406 32.3016 178.835 32.0963C179.283 31.8723 179.507 31.527 179.507 31.0603C179.507 30.7616 179.405 30.5096 179.199 30.3043C178.994 30.0803 178.583 29.903 177.967 29.7723L175.503 29.2683C173.879 28.9323 172.722 28.4283 172.031 27.7563C171.359 27.0656 171.023 26.179 171.023 25.0963C171.023 24.331 171.247 23.6123 171.695 22.9403C172.162 22.2683 172.853 21.727 173.767 21.3163C174.682 20.887 175.821 20.6723 177.183 20.6723C180.021 20.6723 182.055 21.5403 183.287 23.2763L180.991 25.5163C180.581 24.863 180.039 24.3683 179.367 24.0323C178.714 23.6776 178.023 23.5003 177.295 23.5003C175.653 23.5003 174.831 23.9576 174.831 24.8723C174.831 25.171 174.962 25.4323 175.223 25.6563C175.485 25.8616 175.961 26.039 176.651 26.1883L179.507 26.7763C180.889 27.0563 181.878 27.5323 182.475 28.2043C183.073 28.8576 183.371 29.651 183.371 30.5843C183.371 31.9283 182.83 33.039 181.747 33.9163C180.683 34.7936 179.153 35.2323 177.155 35.2323Z" fill="#3555AE"/>
</svg>
