<svg width="187" height="49" viewBox="0 0 187 49" fill="none" xmlns="http://www.w3.org/2000/svg">
<path fill-rule="evenodd" clip-rule="evenodd" d="M22 37.4188C28.8851 37.4188 34.4667 31.8373 34.4667 24.9521C34.4667 18.067 28.8851 12.4855 22 12.4855C15.1148 12.4855 9.53333 18.067 9.53333 24.9521C9.53333 31.8373 15.1148 37.4188 22 37.4188ZM22 46.9521C34.1503 46.9521 44 37.1024 44 24.9521C44 12.8019 34.1503 2.95215 22 2.95215C9.84973 2.95215 0 12.8019 0 24.9521C0 37.1024 9.84973 46.9521 22 46.9521Z" fill="#6938EF"/>
<path d="M22.252 25.4335C24.5431 23.1424 28.2577 23.1424 30.5488 25.4335L41.9567 36.8415C44.2478 39.1326 44.2478 42.8471 41.9567 45.1382C39.6657 47.4293 35.9511 47.4293 33.66 45.1382L22.252 33.7302C19.961 31.4392 19.961 27.7246 22.252 25.4335Z" fill="#F670C7"/>
<path d="M25.4551 36.9337L32.7004 44.179C36.1756 42.2409 39.0709 39.3879 41.0605 35.9457L33.8746 28.7598C32.6124 32.6992 29.4441 35.7855 25.4551 36.9337Z" fill="#6519BA"/>
<path d="M79.5198 37.052C78.8851 37.836 78.1105 38.4333 77.1958 38.844C76.2998 39.2547 75.3105 39.46 74.2278 39.46C72.7718 39.46 71.4558 39.1427 70.2798 38.508C69.1038 37.892 67.7598 36.7907 66.2478 35.204C64.4745 34.98 62.8878 34.4107 61.4878 33.496C60.1065 32.5814 59.0238 31.4054 58.2398 29.968C57.4745 28.512 57.0918 26.9067 57.0918 25.152C57.0918 23.2293 57.5491 21.5027 58.4638 19.972C59.3971 18.4227 60.6758 17.2093 62.2998 16.332C63.9425 15.4547 65.7811 15.016 67.8158 15.016C69.8505 15.016 71.6798 15.4547 73.3038 16.332C74.9278 17.2093 76.2065 18.4227 77.1398 19.972C78.0731 21.5027 78.5398 23.2293 78.5398 25.152C78.5398 27.4293 77.8958 29.4267 76.6078 31.144C75.3385 32.8613 73.6491 34.056 71.5398 34.728C72.0065 35.2133 72.4545 35.5587 72.8838 35.764C73.3318 35.988 73.8078 36.1 74.3118 36.1C75.5251 36.1 76.5891 35.6147 77.5038 34.644L79.5198 37.052ZM61.6838 25.152C61.6838 26.3653 61.9451 27.448 62.4678 28.4C63.0091 29.352 63.7465 30.0987 64.6798 30.64C65.6131 31.1627 66.6585 31.424 67.8158 31.424C68.9731 31.424 70.0185 31.1627 70.9518 30.64C71.8851 30.0987 72.6131 29.352 73.1358 28.4C73.6771 27.448 73.9478 26.3653 73.9478 25.152C73.9478 23.9387 73.6771 22.856 73.1358 21.904C72.6131 20.952 71.8851 20.2147 70.9518 19.692C70.0185 19.1507 68.9731 18.88 67.8158 18.88C66.6585 18.88 65.6131 19.1507 64.6798 19.692C63.7465 20.2147 63.0091 20.952 62.4678 21.904C61.9451 22.856 61.6838 23.9387 61.6838 25.152Z" fill="#3555AE"/>
<path d="M96.8168 19.888V34.952H92.6728V33.16C92.0941 33.8134 91.4035 34.3174 90.6008 34.672C89.7981 35.008 88.9301 35.176 87.9968 35.176C86.0181 35.176 84.4501 34.6067 83.2928 33.468C82.1355 32.3294 81.5568 30.64 81.5568 28.4V19.888H85.9248V27.756C85.9248 30.1827 86.9421 31.396 88.9768 31.396C90.0221 31.396 90.8621 31.06 91.4968 30.388C92.1315 29.6974 92.4488 28.68 92.4488 27.336V19.888H96.8168Z" fill="#3555AE"/>
<path d="M108.031 35.176C106.445 35.176 105.017 34.8493 103.747 34.196C102.497 33.524 101.517 32.6 100.807 31.424C100.098 30.248 99.7435 28.9133 99.7435 27.42C99.7435 25.9267 100.098 24.592 100.807 23.416C101.517 22.24 102.497 21.3253 103.747 20.672C105.017 20 106.445 19.664 108.031 19.664C109.618 19.664 111.037 20 112.287 20.672C113.538 21.3253 114.518 22.24 115.227 23.416C115.937 24.592 116.291 25.9267 116.291 27.42C116.291 28.9133 115.937 30.248 115.227 31.424C114.518 32.6 113.538 33.524 112.287 34.196C111.037 34.8493 109.618 35.176 108.031 35.176ZM108.031 31.592C109.151 31.592 110.066 31.2187 110.775 30.472C111.503 29.7067 111.867 28.6893 111.867 27.42C111.867 26.1507 111.503 25.1427 110.775 24.396C110.066 23.6307 109.151 23.248 108.031 23.248C106.911 23.248 105.987 23.6307 105.259 24.396C104.531 25.1427 104.167 26.1507 104.167 27.42C104.167 28.6893 104.531 29.7067 105.259 30.472C105.987 31.2187 106.911 31.592 108.031 31.592Z" fill="#3555AE"/>
<path d="M128.927 34.224C128.498 34.5413 127.966 34.784 127.331 34.952C126.715 35.1014 126.062 35.176 125.371 35.176C123.579 35.176 122.188 34.7187 121.199 33.804C120.228 32.8893 119.743 31.5453 119.743 29.772V23.584H117.419V20.224H119.743V16.556H124.111V20.224H127.863V23.584H124.111V29.716C124.111 30.3507 124.27 30.8453 124.587 31.2C124.923 31.536 125.39 31.704 125.987 31.704C126.678 31.704 127.266 31.5173 127.751 31.144L128.927 34.224Z" fill="#3555AE"/>
<path d="M131.379 19.888H135.747V34.952H131.379V19.888ZM133.563 17.788C132.76 17.788 132.107 17.5547 131.603 17.088C131.099 16.6213 130.847 16.0427 130.847 15.352C130.847 14.6613 131.099 14.0827 131.603 13.616C132.107 13.1493 132.76 12.916 133.563 12.916C134.366 12.916 135.019 13.14 135.523 13.588C136.027 14.036 136.279 14.596 136.279 15.268C136.279 15.996 136.027 16.6027 135.523 17.088C135.019 17.5547 134.366 17.788 133.563 17.788Z" fill="#3555AE"/>
<path d="M154.557 27.476C154.557 27.532 154.529 27.924 154.473 28.652H143.077C143.282 29.5853 143.768 30.3227 144.533 30.864C145.298 31.4053 146.25 31.676 147.389 31.676C148.173 31.676 148.864 31.564 149.461 31.34C150.077 31.0974 150.646 30.724 151.169 30.22L153.493 32.74C152.074 34.364 150.002 35.176 147.277 35.176C145.578 35.176 144.076 34.8493 142.769 34.196C141.462 33.524 140.454 32.6 139.745 31.424C139.036 30.248 138.681 28.9133 138.681 27.42C138.681 25.9453 139.026 24.62 139.717 23.444C140.426 22.2494 141.388 21.3253 142.601 20.672C143.833 20 145.205 19.664 146.717 19.664C148.192 19.664 149.526 19.9814 150.721 20.616C151.916 21.2507 152.849 22.1653 153.521 23.36C154.212 24.536 154.557 25.908 154.557 27.476ZM146.745 22.968C145.756 22.968 144.925 23.248 144.253 23.808C143.581 24.368 143.17 25.1334 143.021 26.104H150.441C150.292 25.152 149.881 24.396 149.209 23.836C148.537 23.2574 147.716 22.968 146.745 22.968Z" fill="#3555AE"/>
<path d="M166.621 19.664C168.488 19.664 169.99 20.224 171.129 21.344C172.286 22.464 172.865 24.1253 172.865 26.328V34.952H168.497V27C168.497 25.8054 168.236 24.9187 167.713 24.34C167.19 23.7427 166.434 23.444 165.445 23.444C164.344 23.444 163.466 23.7894 162.813 24.48C162.16 25.152 161.833 26.16 161.833 27.504V34.952H157.465V19.888H161.637V21.652C162.216 21.0173 162.934 20.532 163.793 20.196C164.652 19.8414 165.594 19.664 166.621 19.664Z" fill="#3555AE"/>
<path d="M186.54 34.224C186.111 34.5413 185.579 34.784 184.944 34.952C184.328 35.1014 183.675 35.176 182.984 35.176C181.192 35.176 179.802 34.7187 178.812 33.804C177.842 32.8893 177.356 31.5453 177.356 29.772V23.584H175.032V20.224H177.356V16.556H181.724V20.224H185.476V23.584H181.724V29.716C181.724 30.3507 181.883 30.8453 182.2 31.2C182.536 31.536 183.003 31.704 183.6 31.704C184.291 31.704 184.879 31.5173 185.364 31.144L186.54 34.224Z" fill="#3555AE"/>
</svg>
