<svg width="161" height="49" viewBox="0 0 161 49" fill="none" xmlns="http://www.w3.org/2000/svg">
<path d="M22.25 2.95215C10.0997 2.95215 0.25 12.8019 0.25 24.9521C0.25 37.1024 10.0997 46.9521 22.25 46.9521C33.151 46.9521 42.2002 39.0238 43.9458 28.6188H43.7879C42.1598 34.9447 36.4174 39.6188 29.5833 39.6188C21.4832 39.6188 14.9167 33.0523 14.9167 24.9521C14.9167 16.852 21.4832 10.2855 29.5833 10.2855C36.4174 10.2855 42.1598 14.9596 43.7879 21.2855H43.9458C42.2002 10.8805 33.151 2.95215 22.25 2.95215Z" fill="#A4BCFD"/>
<path d="M0.25 24.9521C0.25 12.8019 10.0997 2.95215 22.25 2.95215C33.151 2.95215 42.2002 10.8805 43.9458 21.2855H29.1213C27.4931 14.9596 21.7507 10.2855 14.9167 10.2855C6.81649 10.2855 0.25 16.852 0.25 24.9521Z" fill="#3538CD"/>
<path d="M0.25 24.9521C0.25 37.1024 10.0997 46.9521 22.25 46.9521C33.151 46.9521 42.2002 39.0238 43.9458 28.6188H29.1213C27.4931 34.9446 21.7507 39.6188 14.9167 39.6188C6.81649 39.6188 0.25 33.0523 0.25 24.9521Z" fill="#3538CD"/>
<path d="M75.6886 21.4597C75.0622 16.9355 71.5821 14.3105 67.0679 14.3105C61.7483 14.3105 57.7412 18.1884 57.7412 24.7708C57.7412 31.3432 61.6986 35.231 67.0679 35.231C71.9102 35.231 75.1219 32.0989 75.6886 28.2111L71.9699 28.1912C71.5026 30.5776 69.5537 31.9199 67.1176 31.9199C63.8165 31.9199 61.45 29.4441 61.45 24.7708C61.45 20.177 63.7966 17.6216 67.1276 17.6216C69.6034 17.6216 71.5423 19.0236 71.9699 21.4597H75.6886Z" fill="#3555AE"/>
<path d="M83.3026 35.2608C85.6989 35.2608 87.1308 34.1373 87.787 32.8546H87.9063V34.9526H91.3666V24.731C91.3666 20.6941 88.0754 19.481 85.162 19.481C81.9504 19.481 79.4845 20.9128 78.689 23.6969L82.0498 24.1742C82.4078 23.1302 83.422 22.2353 85.1819 22.2353C86.8524 22.2353 87.7671 23.0904 87.7671 24.5918V24.6515C87.7671 25.6855 86.6833 25.7353 83.9887 26.0236C81.0257 26.3418 78.1918 27.2267 78.1918 30.6671C78.1918 33.6699 80.3893 35.2608 83.3026 35.2608ZM84.2373 32.6159C82.7359 32.6159 81.662 31.9299 81.662 30.6074C81.662 29.2253 82.8651 28.6486 84.4759 28.4199C85.4205 28.2907 87.3097 28.052 87.7771 27.6742V29.4739C87.7771 31.1742 86.4049 32.6159 84.2373 32.6159Z" fill="#3555AE"/>
<path d="M102.612 19.6799H99.5995V16.0208H96.0001V19.6799H93.8325V22.464H96.0001V30.9554C95.9802 33.829 98.0683 35.2409 100.773 35.1614C101.797 35.1316 102.503 34.9327 102.891 34.8034L102.284 31.9895C102.085 32.0392 101.678 32.1287 101.23 32.1287C100.325 32.1287 99.5995 31.8105 99.5995 30.3588V22.464H102.612V19.6799Z" fill="#3555AE"/>
<path d="M110.017 35.2608C112.414 35.2608 113.846 34.1373 114.502 32.8546H114.621V34.9526H118.081V24.731C118.081 20.6941 114.79 19.481 111.877 19.481C108.665 19.481 106.199 20.9128 105.404 23.6969L108.765 24.1742C109.123 23.1302 110.137 22.2353 111.897 22.2353C113.567 22.2353 114.482 23.0904 114.482 24.5918V24.6515C114.482 25.6855 113.398 25.7353 110.704 26.0236C107.74 26.3418 104.907 27.2267 104.907 30.6671C104.907 33.6699 107.104 35.2608 110.017 35.2608ZM110.952 32.6159C109.451 32.6159 108.377 31.9299 108.377 30.6074C108.377 29.2253 109.58 28.6486 111.191 28.4199C112.135 28.2907 114.025 28.052 114.492 27.6742V29.4739C114.492 31.1742 113.12 32.6159 110.952 32.6159Z" fill="#3555AE"/>
<path d="M125.3 14.589H121.701V34.9526H125.3V14.589Z" fill="#3555AE"/>
<path d="M135.663 35.2509C140.138 35.2509 142.982 32.0989 142.982 27.3759C142.982 22.6429 140.138 19.481 135.663 19.481C131.189 19.481 128.345 22.6429 128.345 27.3759C128.345 32.0989 131.189 35.2509 135.663 35.2509ZM135.683 32.3674C133.207 32.3674 131.994 30.16 131.994 27.3659C131.994 24.5719 133.207 22.3347 135.683 22.3347C138.119 22.3347 139.332 24.5719 139.332 27.3659C139.332 30.16 138.119 32.3674 135.683 32.3674Z" fill="#3555AE"/>
<path d="M152.679 40.9981C156.805 40.9981 159.848 39.1088 159.848 35.2012V19.6799H156.298V22.2054H156.099C155.552 21.1017 154.409 19.481 151.714 19.481C148.184 19.481 145.41 22.2452 145.41 27.2665C145.41 32.2481 148.184 34.7338 151.704 34.7338C154.319 34.7338 155.542 33.3319 156.099 32.2083H156.278V35.1017C156.278 37.3489 154.787 38.2736 152.738 38.2736C150.571 38.2736 149.616 37.2495 149.179 36.3546L145.937 37.1401C146.593 39.2779 148.791 40.9981 152.679 40.9981ZM152.709 31.91C150.332 31.91 149.079 30.0605 149.079 27.2466C149.079 24.4725 150.312 22.4341 152.709 22.4341C155.025 22.4341 156.298 24.3532 156.298 27.2466C156.298 30.16 155.005 31.91 152.709 31.91Z" fill="#3555AE"/>
</svg>
