<svg width="170" height="49" viewBox="0 0 170 49" fill="none" xmlns="http://www.w3.org/2000/svg">
<rect x="0.75" y="20.1523" width="9.59998" height="9.59999" fill="#039855"/>
<rect x="29.5498" y="29.752" width="9.6" height="9.59999" transform="rotate(180 29.5498 29.752)" fill="#027A48"/>
<path d="M10.3496 20.1517L19.9496 10.5518V20.1517L10.3496 29.7517V20.1517Z" fill="#A6F4C5"/>
<path d="M19.9502 29.7526L10.3502 39.3525L10.3502 29.7526L19.9502 20.1526L19.9502 29.7526Z" fill="#6CE9A6"/>
<path d="M0.75 20.1521L19.95 0.952148V10.5521L10.35 20.1521H0.75Z" fill="#32D583"/>
<path d="M29.5498 29.7522L10.3498 48.9521L10.3498 39.3522L19.9498 29.7522L29.5498 29.7522Z" fill="#12B76A"/>
<path d="M50.4585 35.2319C48.9465 35.2319 47.4811 35.0173 46.0625 34.5879C44.6625 34.1586 43.5518 33.5893 42.7305 32.8799L43.9905 30.0519C44.7931 30.6866 45.7731 31.2093 46.9305 31.6199C48.1065 32.0119 49.2825 32.2079 50.4585 32.2079C51.9145 32.2079 52.9971 31.9746 53.7065 31.5079C54.4345 31.0413 54.7985 30.4253 54.7985 29.6599C54.7985 29.0999 54.5931 28.6426 54.1825 28.2879C53.7905 27.9146 53.2865 27.6253 52.6705 27.4199C52.0545 27.2146 51.2145 26.9813 50.1505 26.7199C48.6571 26.3653 47.4438 26.0106 46.5105 25.6559C45.5958 25.3013 44.8025 24.7506 44.1305 24.0039C43.4771 23.2386 43.1505 22.2119 43.1505 20.9239C43.1505 19.8413 43.4398 18.8613 44.0185 17.9839C44.6158 17.0879 45.5025 16.3786 46.6785 15.8559C47.8731 15.3333 49.3291 15.0719 51.0465 15.0719C52.2411 15.0719 53.4171 15.2213 54.5745 15.5199C55.7318 15.8186 56.7305 16.2479 57.5705 16.8079L56.4225 19.6359C55.5638 19.1319 54.6678 18.7493 53.7345 18.4879C52.8011 18.2266 51.8958 18.0959 51.0185 18.0959C49.5811 18.0959 48.5078 18.3386 47.7985 18.8239C47.1078 19.3093 46.7625 19.9533 46.7625 20.7559C46.7625 21.3159 46.9585 21.7733 47.3505 22.1279C47.7611 22.4826 48.2745 22.7626 48.8905 22.9679C49.5065 23.1733 50.3465 23.4066 51.4105 23.6679C52.8665 24.0039 54.0611 24.3586 54.9945 24.7319C55.9278 25.0866 56.7211 25.6373 57.3745 26.3839C58.0465 27.1306 58.3825 28.1386 58.3825 29.4079C58.3825 30.4906 58.0838 31.4706 57.4865 32.3479C56.9078 33.2253 56.0211 33.9253 54.8265 34.4479C53.6318 34.9706 52.1758 35.2319 50.4585 35.2319Z" fill="#3555AE"/>
<path d="M61.6558 19.9999H65.1558V34.9519H61.6558V19.9999ZM63.4198 17.5359C62.7852 17.5359 62.2532 17.3399 61.8238 16.9479C61.3945 16.5373 61.1798 16.0333 61.1798 15.4359C61.1798 14.8386 61.3945 14.3439 61.8238 13.9519C62.2532 13.5413 62.7852 13.3359 63.4198 13.3359C64.0545 13.3359 64.5865 13.5319 65.0158 13.9239C65.4452 14.2973 65.6598 14.7733 65.6598 15.3519C65.6598 15.9679 65.4452 16.4906 65.0158 16.9199C64.6052 17.3306 64.0732 17.5359 63.4198 17.5359Z" fill="#3555AE"/>
<path d="M74.3696 35.1479C73.1562 35.1479 71.9709 34.9893 70.8136 34.6719C69.6562 34.3546 68.7323 33.9533 68.0416 33.4679L69.3856 30.8079C70.0576 31.2559 70.8602 31.6199 71.7936 31.8999C72.7456 32.1613 73.6789 32.2919 74.5936 32.2919C76.6842 32.2919 77.7296 31.7413 77.7296 30.6399C77.7296 30.1173 77.4589 29.7533 76.9176 29.5479C76.3949 29.3426 75.5456 29.1466 74.3696 28.9599C73.1376 28.7733 72.1296 28.5586 71.3456 28.3159C70.5802 28.0733 69.9082 27.6533 69.3296 27.0559C68.7696 26.4399 68.4896 25.5906 68.4896 24.5079C68.4896 23.0893 69.0776 21.9599 70.2536 21.1199C71.4482 20.2613 73.0536 19.8319 75.0696 19.8319C76.0962 19.8319 77.1229 19.9533 78.1496 20.1959C79.1762 20.4199 80.0162 20.7279 80.6696 21.1199L79.3256 23.7799C78.0562 23.0333 76.6282 22.6599 75.0416 22.6599C74.0149 22.6599 73.2309 22.8186 72.6896 23.1359C72.1669 23.4346 71.9056 23.8359 71.9056 24.3399C71.9056 24.8999 72.1856 25.3013 72.7456 25.5439C73.3242 25.7679 74.2109 25.9826 75.4056 26.1879C76.6002 26.3746 77.5802 26.5893 78.3456 26.8319C79.1109 27.0746 79.7642 27.4853 80.3056 28.0639C80.8656 28.6426 81.1456 29.4639 81.1456 30.5279C81.1456 31.9279 80.5389 33.0479 79.3256 33.8879C78.1122 34.7279 76.4602 35.1479 74.3696 35.1479Z" fill="#3555AE"/>
<path d="M97.8863 19.9999L90.8863 36.1559C90.233 37.7799 89.4396 38.9186 88.5063 39.5719C87.573 40.2439 86.4436 40.5799 85.1183 40.5799C84.3716 40.5799 83.6343 40.4586 82.9063 40.2159C82.1783 39.9733 81.581 39.6373 81.1143 39.2079L82.5143 36.6319C82.8503 36.9493 83.2423 37.2013 83.6903 37.3879C84.157 37.5746 84.6236 37.6679 85.0903 37.6679C85.7063 37.6679 86.2103 37.5093 86.6023 37.1919C87.013 36.8746 87.3863 36.3426 87.7223 35.5959L87.9743 35.0079L81.4503 19.9999H85.0903L89.7943 31.0599L94.5263 19.9999H97.8863Z" fill="#3555AE"/>
<path d="M108.362 19.8319C109.818 19.8319 111.115 20.1493 112.254 20.7839C113.411 21.4186 114.316 22.3146 114.97 23.4719C115.623 24.6293 115.95 25.9639 115.95 27.4759C115.95 28.9879 115.623 30.3319 114.97 31.5079C114.316 32.6653 113.411 33.5613 112.254 34.1959C111.115 34.8306 109.818 35.1479 108.362 35.1479C106.346 35.1479 104.75 34.4759 103.574 33.1319V40.3839H100.074V19.9999H103.406V21.9599C103.984 21.2506 104.694 20.7186 105.534 20.3639C106.392 20.0093 107.335 19.8319 108.362 19.8319ZM107.97 32.1519C109.258 32.1519 110.312 31.7226 111.134 30.8639C111.974 30.0053 112.394 28.8759 112.394 27.4759C112.394 26.0759 111.974 24.9466 111.134 24.0879C110.312 23.2293 109.258 22.7999 107.97 22.7999C107.13 22.7999 106.374 22.9959 105.702 23.3879C105.03 23.7613 104.498 24.3026 104.106 25.0119C103.714 25.7213 103.518 26.5426 103.518 27.4759C103.518 28.4093 103.714 29.2306 104.106 29.9399C104.498 30.6493 105.03 31.1999 105.702 31.5919C106.374 31.9653 107.13 32.1519 107.97 32.1519Z" fill="#3555AE"/>
<path d="M127.753 19.8319C129.638 19.8319 131.15 20.3826 132.289 21.4839C133.428 22.5853 133.997 24.2186 133.997 26.3839V34.9519H130.497V26.8319C130.497 25.5253 130.189 24.5453 129.573 23.8919C128.957 23.2199 128.08 22.8839 126.941 22.8839C125.653 22.8839 124.636 23.2759 123.889 24.0599C123.142 24.8253 122.769 25.9359 122.769 27.3919V34.9519H119.269V14.1759H122.769V21.7359C123.348 21.1199 124.057 20.6533 124.897 20.3359C125.756 19.9999 126.708 19.8319 127.753 19.8319Z" fill="#3555AE"/>
<path d="M152.913 19.9999V34.9519H149.581V33.0479C149.021 33.7199 148.321 34.2426 147.481 34.6159C146.641 34.9706 145.736 35.1479 144.765 35.1479C142.768 35.1479 141.19 34.5973 140.033 33.4959C138.894 32.3759 138.325 30.7239 138.325 28.5399V19.9999H141.825V28.0639C141.825 29.4079 142.124 30.4159 142.721 31.0879C143.337 31.7413 144.205 32.0679 145.325 32.0679C146.576 32.0679 147.565 31.6853 148.293 30.9199C149.04 30.1359 149.413 29.0159 149.413 27.5599V19.9999H152.913Z" fill="#3555AE"/>
<path d="M162.116 35.1479C160.902 35.1479 159.717 34.9893 158.56 34.6719C157.402 34.3546 156.478 33.9533 155.788 33.4679L157.132 30.8079C157.804 31.2559 158.606 31.6199 159.54 31.8999C160.492 32.1613 161.425 32.2919 162.34 32.2919C164.43 32.2919 165.476 31.7413 165.476 30.6399C165.476 30.1173 165.205 29.7533 164.664 29.5479C164.141 29.3426 163.292 29.1466 162.116 28.9599C160.884 28.7733 159.876 28.5586 159.092 28.3159C158.326 28.0733 157.654 27.6533 157.076 27.0559C156.516 26.4399 156.236 25.5906 156.236 24.5079C156.236 23.0893 156.824 21.9599 158 21.1199C159.194 20.2613 160.8 19.8319 162.816 19.8319C163.842 19.8319 164.869 19.9533 165.896 20.1959C166.922 20.4199 167.762 20.7279 168.416 21.1199L167.072 23.7799C165.802 23.0333 164.374 22.6599 162.788 22.6599C161.761 22.6599 160.977 22.8186 160.436 23.1359C159.913 23.4346 159.652 23.8359 159.652 24.3399C159.652 24.8999 159.932 25.3013 160.492 25.5439C161.07 25.7679 161.957 25.9826 163.152 26.1879C164.346 26.3746 165.326 26.5893 166.092 26.8319C166.857 27.0746 167.51 27.4853 168.052 28.0639C168.612 28.6426 168.892 29.4639 168.892 30.5279C168.892 31.9279 168.285 33.0479 167.072 33.8879C165.858 34.7279 164.206 35.1479 162.116 35.1479Z" fill="#3555AE"/>
</svg>
