<svg width="138" height="35" viewBox="0 0 138 35" fill="none" xmlns="http://www.w3.org/2000/svg">
<path d="M24.6943 17.9525C22.1993 20.7655 18.5735 22.5358 14.538 22.5358C10.5026 22.5358 6.8768 20.7655 4.38184 17.9525C6.8768 15.1395 10.5026 13.3691 14.538 13.3691C18.5735 13.3691 22.1993 15.1395 24.6943 17.9525Z" fill="white"/>
<path fill-rule="evenodd" clip-rule="evenodd" d="M0.912109 27.1191C0.912109 19.5252 7.01256 13.3691 14.5379 13.3691C10.5024 13.3691 6.87664 15.1395 4.38168 17.9525C6.87664 20.7655 10.5024 22.5358 14.5379 22.5358C18.5734 22.5358 22.1991 20.7655 24.6941 17.9525C26.8517 20.3851 28.1636 23.5975 28.1636 27.1191V32.3136C28.1636 32.9886 27.6213 33.5358 26.9524 33.5358H2.12329C1.45437 33.5358 0.912109 32.9886 0.912109 32.3136V27.1191ZM24.6941 17.9525C24.6941 17.9525 24.6941 17.9525 24.6941 17.9525V17.9525Z" fill="#7CD4FD"/>
<path fill-rule="evenodd" clip-rule="evenodd" d="M9.427 21.5358C7.48143 20.7409 5.7592 19.5056 4.38168 17.9525C6.87664 15.1395 10.5024 13.3691 14.5379 13.3691C18.5734 13.3691 22.1991 15.1395 24.6941 17.9525C24.6941 17.9525 24.6941 17.9525 24.6941 17.9525C26.8517 15.5198 28.1636 12.3074 28.1636 8.78581V3.59136C28.1636 2.91635 27.6213 2.36914 26.9524 2.36914L2.12329 2.36914C1.45437 2.36914 0.91211 2.91635 0.91211 3.59136L0.912109 8.78581C0.912108 14.5558 4.43409 19.4958 9.427 21.5358Z" fill="#0BA5EC"/>
<path d="M49.4461 11.1914V25.0351H46.6946V19.1446H40.818V25.0351H38.0664V11.1914H40.818V16.8836H46.6946V11.1914H49.4461Z" fill="#3555AE"/>
<path d="M56.9893 25.2136C55.9411 25.2136 54.9977 24.9822 54.1591 24.5194C53.3206 24.0434 52.6589 23.3757 52.1741 22.5162C51.7024 21.6568 51.4665 20.6651 51.4665 19.5412C51.4665 18.4173 51.7089 17.4257 52.1937 16.5662C52.6916 15.7068 53.3664 15.0457 54.2181 14.5829C55.0698 14.1069 56.0197 13.8689 57.0679 13.8689C58.1162 13.8689 59.0661 14.1069 59.9178 14.5829C60.7695 15.0457 61.4377 15.7068 61.9225 16.5662C62.4204 17.4257 62.6694 18.4173 62.6694 19.5412C62.6694 20.6651 62.4139 21.6568 61.9028 22.5162C61.4049 23.3757 60.7236 24.0434 59.8588 24.5194C59.0071 24.9822 58.0506 25.2136 56.9893 25.2136ZM56.9893 22.7939C57.4872 22.7939 57.9524 22.6749 58.3848 22.4369C58.8303 22.1857 59.184 21.8155 59.4461 21.3262C59.7081 20.837 59.8392 20.242 59.8392 19.5412C59.8392 18.4967 59.564 17.6967 59.0137 17.1414C58.4765 16.5728 57.8148 16.2886 57.0286 16.2886C56.2425 16.2886 55.5808 16.5728 55.0436 17.1414C54.5195 17.6967 54.2574 18.4967 54.2574 19.5412C54.2574 20.5858 54.5129 21.3923 55.0239 21.9609C55.548 22.5162 56.2032 22.7939 56.9893 22.7939Z" fill="#3555AE"/>
<path d="M74.9668 14.0474V25.0351H72.1956V23.6467C71.8418 24.1227 71.3767 24.4996 70.8002 24.7772C70.2367 25.0417 69.6209 25.1739 68.9527 25.1739C68.101 25.1739 67.3476 24.9954 66.6925 24.6384C66.0373 24.2682 65.5198 23.7327 65.1398 23.0319C64.7729 22.3179 64.5895 21.4717 64.5895 20.4932V14.0474H67.341V20.0966C67.341 20.9692 67.5572 21.6436 67.9896 22.1196C68.422 22.5823 69.0116 22.8137 69.7585 22.8137C70.5185 22.8137 71.1146 22.5823 71.547 22.1196C71.9794 21.6436 72.1956 20.9692 72.1956 20.0966V14.0474H74.9668Z" fill="#3555AE"/>
<path d="M80.4333 15.7531C80.7871 15.1713 81.2457 14.7151 81.8091 14.3846C82.3856 14.054 83.0407 13.8887 83.7745 13.8887V16.8042H83.0473C82.1825 16.8042 81.5274 17.0092 81.0819 17.4191C80.6495 17.829 80.4333 18.543 80.4333 19.5611V25.0351H77.6817V14.0474H80.4333V15.7531Z" fill="#3555AE"/>
<path d="M89.8928 13.8689C90.7051 13.8689 91.4192 14.0342 92.035 14.3647C92.6509 14.6821 93.1357 15.0986 93.4895 15.6142V14.0474H96.2607V25.1144C96.2607 26.1325 96.0576 27.0382 95.6514 27.8316C95.2452 28.6381 94.6359 29.2728 93.8236 29.7356C93.0112 30.2116 92.0285 30.4496 90.8755 30.4496C89.3293 30.4496 88.0584 30.086 87.0626 29.3587C86.0799 28.6315 85.523 27.6398 85.392 26.3837H88.1239C88.268 26.8862 88.5759 27.2828 89.0476 27.5737C89.5324 27.8778 90.1155 28.0299 90.7968 28.0299C91.5961 28.0299 92.2447 27.7853 92.7426 27.2961C93.2405 26.8201 93.4895 26.0928 93.4895 25.1144V23.4087C93.1357 23.9244 92.6443 24.3541 92.0154 24.6979C91.3996 25.0417 90.692 25.2136 89.8928 25.2136C88.9756 25.2136 88.137 24.9756 87.377 24.4996C86.6171 24.0236 86.0143 23.3558 85.5688 22.4964C85.1365 21.6237 84.9203 20.6255 84.9203 19.5016C84.9203 18.3909 85.1365 17.4058 85.5688 16.5464C86.0143 15.687 86.6105 15.0258 87.3574 14.5631C88.1173 14.1003 88.9625 13.8689 89.8928 13.8689ZM93.4895 19.5412C93.4895 18.8669 93.3584 18.2917 93.0964 17.8157C92.8343 17.3265 92.4805 16.9563 92.035 16.7051C91.5896 16.4406 91.1113 16.3084 90.6003 16.3084C90.0893 16.3084 89.6176 16.434 89.1852 16.6852C88.7528 16.9365 88.399 17.3067 88.1239 17.7959C87.8618 18.2719 87.7308 18.8405 87.7308 19.5016C87.7308 20.1627 87.8618 20.7445 88.1239 21.2469C88.399 21.7361 88.7528 22.113 89.1852 22.3774C89.6307 22.6418 90.1024 22.7741 90.6003 22.7741C91.1113 22.7741 91.5896 22.6485 92.035 22.3972C92.4805 22.1328 92.8343 21.7626 93.0964 21.2866C93.3584 20.7973 93.4895 20.2156 93.4895 19.5412Z" fill="#3555AE"/>
<path d="M101.7 10.3584V25.0351H98.9481V10.3584H101.7Z" fill="#3555AE"/>
<path d="M103.711 19.5016C103.711 18.3909 103.927 17.4058 104.359 16.5464C104.805 15.687 105.401 15.0258 106.148 14.5631C106.908 14.1003 107.753 13.8689 108.683 13.8689C109.496 13.8689 110.203 14.0342 110.806 14.3647C111.422 14.6953 111.913 15.1118 112.28 15.6142V14.0474H115.051V25.0351H112.28V23.4286C111.926 23.9442 111.435 24.374 110.806 24.7177C110.19 25.0483 109.476 25.2136 108.663 25.2136C107.746 25.2136 106.908 24.9756 106.148 24.4996C105.401 24.0236 104.805 23.3558 104.359 22.4964C103.927 21.6237 103.711 20.6255 103.711 19.5016ZM112.28 19.5412C112.28 18.8669 112.149 18.2917 111.887 17.8157C111.625 17.3265 111.271 16.9563 110.825 16.7051C110.38 16.4406 109.902 16.3084 109.391 16.3084C108.88 16.3084 108.408 16.434 107.976 16.6852C107.543 16.9365 107.189 17.3067 106.914 17.7959C106.652 18.2719 106.521 18.8405 106.521 19.5016C106.521 20.1627 106.652 20.7445 106.914 21.2469C107.189 21.7361 107.543 22.113 107.976 22.3774C108.421 22.6418 108.893 22.7741 109.391 22.7741C109.902 22.7741 110.38 22.6485 110.825 22.3972C111.271 22.1328 111.625 21.7626 111.887 21.2866C112.149 20.7973 112.28 20.2156 112.28 19.5412Z" fill="#3555AE"/>
<path d="M121.905 25.2136C121.014 25.2136 120.215 25.0549 119.507 24.7376C118.8 24.407 118.236 23.9641 117.817 23.4087C117.411 22.8534 117.188 22.2386 117.149 21.5642H119.92C119.972 21.9873 120.176 22.3377 120.529 22.6154C120.896 22.8931 121.348 23.0319 121.885 23.0319C122.41 23.0319 122.816 22.9261 123.104 22.7146C123.405 22.503 123.556 22.232 123.556 21.9014C123.556 21.5444 123.373 21.28 123.006 21.1081C122.652 20.923 122.082 20.7246 121.296 20.5131C120.483 20.3147 119.815 20.1098 119.291 19.8982C118.78 19.6867 118.335 19.3627 117.955 18.9264C117.588 18.4901 117.404 17.9017 117.404 17.1612C117.404 16.553 117.575 15.9977 117.915 15.4952C118.269 14.9928 118.767 14.5961 119.409 14.3052C120.064 14.0143 120.831 13.8689 121.709 13.8689C123.006 13.8689 124.041 14.1995 124.814 14.8606C125.587 15.5085 126.013 16.3877 126.091 17.4984H123.458C123.419 17.0621 123.235 16.7183 122.908 16.4671C122.593 16.2026 122.167 16.0704 121.63 16.0704C121.132 16.0704 120.746 16.163 120.47 16.3481C120.208 16.5332 120.077 16.791 120.077 17.1216C120.077 17.4918 120.261 17.7761 120.628 17.9744C120.994 18.1595 121.564 18.3512 122.338 18.5496C123.124 18.7479 123.772 18.9528 124.283 19.1644C124.794 19.376 125.233 19.7065 125.6 20.1561C125.98 20.5924 126.177 21.1742 126.19 21.9014C126.19 22.5361 126.013 23.1046 125.659 23.6071C125.318 24.1095 124.821 24.5062 124.165 24.7971C123.523 25.0747 122.77 25.2136 121.905 25.2136Z" fill="#3555AE"/>
<path d="M132.615 25.2136C131.724 25.2136 130.925 25.0549 130.217 24.7376C129.51 24.407 128.946 23.9641 128.527 23.4087C128.121 22.8534 127.898 22.2386 127.859 21.5642H130.63C130.682 21.9873 130.886 22.3377 131.239 22.6154C131.606 22.8931 132.058 23.0319 132.595 23.0319C133.12 23.0319 133.526 22.9261 133.814 22.7146C134.115 22.503 134.266 22.232 134.266 21.9014C134.266 21.5444 134.083 21.28 133.716 21.1081C133.362 20.923 132.792 20.7246 132.006 20.5131C131.193 20.3147 130.525 20.1098 130.001 19.8982C129.49 19.6867 129.045 19.3627 128.665 18.9264C128.298 18.4901 128.114 17.9017 128.114 17.1612C128.114 16.553 128.285 15.9977 128.625 15.4952C128.979 14.9928 129.477 14.5961 130.119 14.3052C130.774 14.0143 131.541 13.8689 132.419 13.8689C133.716 13.8689 134.751 14.1995 135.524 14.8606C136.297 15.5085 136.723 16.3877 136.801 17.4984H134.168C134.128 17.0621 133.945 16.7183 133.617 16.4671C133.303 16.2026 132.877 16.0704 132.34 16.0704C131.842 16.0704 131.456 16.163 131.18 16.3481C130.918 16.5332 130.787 16.791 130.787 17.1216C130.787 17.4918 130.971 17.7761 131.338 17.9744C131.704 18.1595 132.274 18.3512 133.047 18.5496C133.834 18.7479 134.482 18.9528 134.993 19.1644C135.504 19.376 135.943 19.7065 136.31 20.1561C136.69 20.5924 136.887 21.1742 136.9 21.9014C136.9 22.5361 136.723 23.1046 136.369 23.6071C136.028 24.1095 135.53 24.5062 134.875 24.7971C134.233 25.0747 133.48 25.2136 132.615 25.2136Z" fill="#3555AE"/>
</svg>
