<svg width="146" height="49" viewBox="0 0 146 49" fill="none" xmlns="http://www.w3.org/2000/svg">
<path d="M13.2778 23.2704C14.1 20.2022 17.2539 17.0483 20.3222 16.226L39.4512 11.0996C42.5194 10.2774 44.3402 12.0981 43.5179 15.1664L38.3916 34.2954C37.5693 37.3636 34.4154 40.5175 31.3471 41.3398L12.2181 46.4662C9.14988 47.2884 7.32913 45.4677 8.15139 42.3994L13.2778 23.2704Z" fill="#9E77ED"/>
<path d="M5.60882 15.6015C6.43108 12.5332 9.58498 9.37932 12.6533 8.55706L31.7822 3.43069C34.8505 2.60842 36.6713 4.42917 35.849 7.49744L30.7226 26.6264C29.9004 29.6947 26.7465 32.8486 23.6782 33.6709L4.5492 38.7972C1.48093 39.6195 -0.339816 37.7987 0.482448 34.7305L5.60882 15.6015Z" fill="#6941C6"/>
<path d="M61.2916 32.3762H67.8716V34.9522H58.0996V15.4922H61.2916V32.3762Z" fill="#3555AE"/>
<path d="M69.477 27.1682C69.477 25.6189 69.7943 24.2469 70.429 23.0522C71.0823 21.8575 71.9597 20.9335 73.061 20.2802C74.181 19.6082 75.413 19.2722 76.757 19.2722C77.9703 19.2722 79.025 19.5149 79.921 20.0002C80.8357 20.4669 81.5637 21.0549 82.105 21.7642V19.5242H85.325V34.9522H82.105V32.6562C81.5637 33.3842 80.8263 33.9909 79.893 34.4762C78.9597 34.9615 77.8957 35.2042 76.701 35.2042C75.3757 35.2042 74.1623 34.8682 73.061 34.1962C71.9597 33.5055 71.0823 32.5535 70.429 31.3402C69.7943 30.1082 69.477 28.7175 69.477 27.1682ZM82.105 27.2242C82.105 26.1602 81.881 25.2362 81.433 24.4522C81.0037 23.6682 80.4343 23.0709 79.725 22.6602C79.0157 22.2495 78.2503 22.0442 77.429 22.0442C76.6077 22.0442 75.8423 22.2495 75.133 22.6602C74.4237 23.0522 73.845 23.6402 73.397 24.4242C72.9677 25.1895 72.753 26.1042 72.753 27.1682C72.753 28.2322 72.9677 29.1655 73.397 29.9682C73.845 30.7709 74.4237 31.3869 75.133 31.8162C75.861 32.2269 76.6263 32.4322 77.429 32.4322C78.2503 32.4322 79.0157 32.2269 79.725 31.8162C80.4343 31.4055 81.0037 30.8082 81.433 30.0242C81.881 29.2215 82.105 28.2882 82.105 27.2242Z" fill="#3555AE"/>
<path d="M103.406 19.5242L93.9416 42.2042H90.6376L93.7736 34.7002L87.6976 19.5242H91.2536L95.5936 31.2842L100.102 19.5242H103.406Z" fill="#3555AE"/>
<path d="M119.954 26.8602C119.954 27.4389 119.917 27.9615 119.842 28.4282H108.054C108.148 29.6602 108.605 30.6495 109.426 31.3962C110.248 32.1429 111.256 32.5162 112.45 32.5162C114.168 32.5162 115.381 31.7975 116.09 30.3602H119.534C119.068 31.7789 118.218 32.9455 116.986 33.8602C115.773 34.7562 114.261 35.2042 112.45 35.2042C110.976 35.2042 109.65 34.8775 108.474 34.2242C107.317 33.5522 106.402 32.6189 105.73 31.4242C105.077 30.2109 104.75 28.8109 104.75 27.2242C104.75 25.6375 105.068 24.2469 105.702 23.0522C106.356 21.8389 107.261 20.9055 108.418 20.2522C109.594 19.5989 110.938 19.2722 112.45 19.2722C113.906 19.2722 115.204 19.5895 116.342 20.2242C117.481 20.8589 118.368 21.7549 119.002 22.9122C119.637 24.0509 119.954 25.3669 119.954 26.8602ZM116.622 25.8522C116.604 24.6762 116.184 23.7335 115.362 23.0242C114.541 22.3149 113.524 21.9602 112.31 21.9602C111.209 21.9602 110.266 22.3149 109.482 23.0242C108.698 23.7149 108.232 24.6575 108.082 25.8522H116.622Z" fill="#3555AE"/>
<path d="M126.288 21.7642C126.754 20.9802 127.37 20.3735 128.136 19.9442C128.92 19.4962 129.844 19.2722 130.908 19.2722V22.5762H130.096C128.845 22.5762 127.893 22.8935 127.24 23.5282C126.605 24.1629 126.288 25.2642 126.288 26.8322V34.9522H123.096V19.5242H126.288V21.7642Z" fill="#3555AE"/>
<path d="M139.442 35.2042C138.228 35.2042 137.136 34.9895 136.166 34.5602C135.214 34.1122 134.458 33.5149 133.898 32.7682C133.338 32.0029 133.039 31.1535 133.002 30.2202H136.306C136.362 30.8735 136.67 31.4242 137.23 31.8722C137.808 32.3015 138.527 32.5162 139.386 32.5162C140.282 32.5162 140.972 32.3482 141.458 32.0122C141.962 31.6575 142.214 31.2095 142.214 30.6682C142.214 30.0895 141.934 29.6602 141.374 29.3802C140.832 29.1002 139.964 28.7922 138.77 28.4562C137.612 28.1389 136.67 27.8309 135.942 27.5322C135.214 27.2335 134.579 26.7762 134.038 26.1602C133.515 25.5442 133.254 24.7322 133.254 23.7242C133.254 22.9029 133.496 22.1562 133.982 21.4842C134.467 20.7935 135.158 20.2522 136.054 19.8602C136.968 19.4682 138.014 19.2722 139.19 19.2722C140.944 19.2722 142.354 19.7202 143.418 20.6162C144.5 21.4935 145.079 22.6975 145.154 24.2282H141.962C141.906 23.5375 141.626 22.9869 141.122 22.5762C140.618 22.1655 139.936 21.9602 139.078 21.9602C138.238 21.9602 137.594 22.1189 137.146 22.4362C136.698 22.7535 136.474 23.1735 136.474 23.6962C136.474 24.1069 136.623 24.4522 136.922 24.7322C137.22 25.0122 137.584 25.2362 138.014 25.4042C138.443 25.5535 139.078 25.7495 139.918 25.9922C141.038 26.2909 141.952 26.5989 142.662 26.9162C143.39 27.2149 144.015 27.6629 144.538 28.2602C145.06 28.8575 145.331 29.6509 145.35 30.6402C145.35 31.5175 145.107 32.3015 144.622 32.9922C144.136 33.6829 143.446 34.2242 142.55 34.6162C141.672 35.0082 140.636 35.2042 139.442 35.2042Z" fill="#3555AE"/>
</svg>
